<svg xmlns="http://www.w3.org/2000/svg" width="321" height="340" viewBox="0 0 391 414">
    <defs>
        <linearGradient id="a">
            <stop stop-color="#2d388a" offset="0"/>
            <stop stop-color="#00aeef" offset="1"/>
        </linearGradient>
    </defs>
    <path fill-rule="evenodd" d="M0 74.75 195.5 0 391 74.75 195.5 11.5zM0 322l195.5 92L391 316.25 195.5 402.5z" fill="#fb9c2a"/>
    <g transform="translate(118.222 68.933)scale(1.55556)" fill="url(#a)">
        <path d="M46.39 49.658a5.81 5.81 0 0 0 5.506-3.907h.028c.016-.077.028-.155.047-.229q.08-.432.185-.846c1.367-5.679 4.89-9.722 9.023-9.722 3.439 0 6.449 2.812 8.154 7.028-7.284-9.487-14.172-2.536-13.643-2.64.53-.104 6.561 1.446 6.769 9.914s-5.527 10.947-7.821 11.812c7.508.35 17.519-4.687 17.311-15.433-.132-6.796-3.753-11.038-6.4-13.243a15 15 0 0 0-.64-.512l-.132-.098q-.44-.332-.903-.631a14 14 0 0 0-.972-.585l-.01-.005-.093-.048-.002.003a15.16 15.16 0 0 0-7.105-1.759c-8.353 0-15.123 6.704-15.123 14.973l.003.003q-.004.079-.003.158c-.001 3.186 2.605 5.767 5.821 5.767"/>
        <path d="M67.782 22.543a27.3 27.3 0 0 0-13.875 3.764c.97-.133 1.958-.208 2.966-.208 11.707 0 21.195 9.397 21.195 20.99a20.73 20.73 0 0 1-3.826 12.029c-.028.04-.053.077-.084.118-1.017 1.478-2.137 2.686-3.348 3.665-6.482 5.242-15.502 3.879-25.097 2.026q-.143-.025-.284-.056c-6.138-1.19-12.501-2.553-18.583-2.5C9.327 62.527 5 75.694 5 75.694s15.12-10.224 34.517-2.788c15.952 6.116 27.635 5.164 34.176 2.909.109-.037.216-.046.313-.071l.522-.124a14 14 0 0 0 .617-.167c.006 0 .013-.003.013-.003l.003-.003C86.606 72.264 95 61.852 95 49.497c0-14.884-12.185-26.954-27.218-26.954"/>
    </g>
    <path d="M44.624 248.937v9.45H30.45v37.496H21v-71.576h23.423v9.55H30.45v15.08zm19.573 37.698H78.07v9.45H54.747v-72.18h9.45zm37.568 9.55c-7.54 0-13.572-6.132-13.572-13.571v-45.138c0-7.439 6.032-13.47 13.572-13.47 7.439 0 13.47 6.031 13.47 13.47v45.138c0 7.439-6.031 13.57-13.47 13.57m0-62.628c-2.212 0-3.921 1.81-3.921 3.92v45.138c0 2.211 1.709 3.92 3.92 3.92 2.112 0 3.921-1.709 3.921-3.92v-45.138c0-2.11-1.81-3.92-3.92-3.92m61.392-9.249h9.65l-9.348 71.777h-9.953l-5.026-35.989-4.725 35.99h-9.952l-10.053-71.778h9.65l5.228 36.995 4.826-36.995h9.65l5.228 36.995zm34.652 72.582h-2.211a12.614 12.614 0 0 1-12.667-12.667v-48.455c0-7.037 5.63-12.767 12.667-12.767h2.211c7.037 0 12.667 5.73 12.667 12.767v5.127h-9.852v-5.127c0-1.709-1.206-2.915-2.815-2.915h-2.211c-1.508 0-2.916 1.206-2.916 2.915v48.455c0 1.508 1.408 2.915 2.916 2.915h2.211c1.609 0 2.815-1.407 2.815-2.915v-26.137h-5.63v-9.752h15.482v35.889c0 7.037-5.63 12.667-12.667 12.667m37.568-.604a14.803 14.803 0 0 1-14.778-14.777v-57.1h9.55v57.1c0 2.915 2.312 5.328 5.228 5.328s5.227-2.413 5.227-5.328v-57.1h9.55v57.1a14.803 14.803 0 0 1-14.777 14.777m51.641-.2-3.619-24.831h-10.153l-3.318 24.83h-9.65l10.857-71.877h12.968l12.566 71.877zm-12.465-34.381h7.439l-3.82-26.138zm58.377 34.581h-10.254l-5.53-15.18h-2.211v15.18h-9.55v-71.978h14.979a11.927 11.927 0 0 1 11.962 11.963v32.873c0 4.323-2.211 8.042-5.63 10.153zm-17.995-62.428v37.698h5.429c1.306 0 2.412-1.105 2.412-2.412V236.27c0-1.307-1.106-2.413-2.412-2.413zm40.684 62.328h-12.566v-71.677h12.566c8.545 0 15.38 6.937 15.38 15.482v40.714c0 4.121-1.608 8.042-4.523 10.957s-6.736 4.524-10.857 4.524m-3.016-62.026v52.375h3.016c1.508 0 3.016-.603 4.121-1.709s1.71-2.513 1.71-4.121V239.99a5.835 5.835 0 0 0-5.831-5.831z" fill="#137dc5"/>
</svg>
