<svg width="450" height="100" viewBox="0 0 450 100" fill="none" xmlns="http://www.w3.org/2000/svg">
    <path d="M170.71 40.4365V48.2467H158.884V79.2365H151V20.0802H170.542V27.9731H158.884V40.4365H170.71ZM187.04 71.5932H198.615V79.4034H179.156V19.748H187.04V71.5932ZM218.384 79.4861C212.093 79.4861 207.061 74.4181 207.061 68.2699V30.9641C207.061 24.8159 212.093 19.8314 218.384 19.8314C224.59 19.8314 229.622 24.8159 229.622 30.9641V68.2699C229.622 74.4181 224.59 79.4852 218.384 79.4852M218.384 27.7243C216.538 27.7243 215.113 29.2203 215.113 30.9641V68.2699C215.113 70.0972 216.538 71.5097 218.383 71.5097C220.145 71.5097 221.654 70.0972 221.654 68.2699V30.9641C221.654 29.2203 220.144 27.7243 218.384 27.7243ZM269.605 20.0802H277.656L269.857 79.4026H261.553L257.359 49.6583L253.417 79.4034H245.114L236.726 20.0802H244.778L249.14 50.6559L253.166 20.0802H261.217L265.579 50.6559L269.605 20.0802ZM298.515 80.0679H296.671C295.281 80.0737 293.904 79.8069 292.62 79.2828C291.335 78.7587 290.167 77.9878 289.185 77.0145C288.202 76.0412 287.424 74.8848 286.895 73.612C286.366 72.3393 286.097 70.9753 286.102 69.5989V29.5517C286.102 23.7357 290.8 19 296.671 19H298.515C304.387 19 309.084 23.7357 309.084 29.5517V33.7891H300.864V29.5517C300.864 28.1392 299.858 27.1425 298.515 27.1425H296.671C295.413 27.1425 294.238 28.1392 294.238 29.5517V69.5989C294.238 70.8452 295.413 72.0081 296.671 72.0081H298.515C299.858 72.0081 300.864 70.8452 300.864 69.5989V47.9971H296.167V39.9373H309.084V69.5989C309.084 75.4148 304.387 80.0679 298.515 80.0679ZM329.859 79.5687C326.591 79.5633 323.458 78.2748 321.147 75.9856C318.836 73.6965 317.535 70.5933 317.53 67.3558V20.1637H325.497V67.3558C325.497 69.765 327.426 71.7593 329.859 71.7593C332.292 71.7593 334.22 69.765 334.22 67.3558V20.1637H342.188V67.3558C342.182 70.5931 340.881 73.6962 338.571 75.9853C336.26 78.2745 333.127 79.563 329.859 79.5687ZM372.944 79.4034L369.925 58.881H361.454L358.686 79.4026H350.635L359.693 19.9976H370.512L380.996 79.4026L372.944 79.4034ZM362.545 50.9882H368.751L365.564 29.3856L362.545 50.9882ZM411.25 79.5687H402.695L398.081 67.0227H396.236V79.5687H388.268V20.0802H400.766C402.077 20.0764 403.377 20.3295 404.59 20.8251C405.802 21.3206 406.904 22.0488 407.832 22.9676C408.759 23.8865 409.494 24.978 409.994 26.1793C410.494 27.3806 410.75 28.668 410.746 29.9674V57.1363C410.746 60.7092 408.901 63.7829 406.049 65.5276L411.25 79.5687ZM396.236 27.9731V59.1298H400.766C401.855 59.1298 402.778 58.2166 402.778 57.1363V29.9674C402.778 28.8872 401.855 27.9731 400.766 27.9731H396.236ZM430.18 79.4861H419.696V20.2463H430.18C437.309 20.2463 443.011 25.9796 443.011 33.0419V66.6913C443.011 70.0972 441.67 73.3379 439.238 75.7471C436.806 78.1563 433.618 79.4861 430.18 79.4861ZM427.663 28.2227V71.5097H430.18C431.438 71.5097 432.696 71.0113 433.618 70.0972C434.54 69.1832 435.045 68.0203 435.045 66.6913V33.0419C435.044 31.7641 434.531 30.5388 433.619 29.6352C432.707 28.7316 431.47 28.2236 430.18 28.2227H427.663Z" fill="#137DC5"/>
    <path d="M60.7175 49.8602C62.2883 49.8646 63.8214 49.3829 65.1025 48.4824C66.3836 47.5819 67.3488 46.3075 67.8633 44.8372H67.8997C67.9204 44.7382 67.936 44.6379 67.9607 44.5428C68.0299 44.1725 68.1099 43.81 68.2008 43.4552C69.9749 36.154 74.5472 30.9561 79.9112 30.9561C84.3744 30.9561 88.2809 34.5714 90.4937 39.9916C81.0403 27.7948 72.1008 36.7313 72.7873 36.5975C73.4752 36.4638 81.3024 38.4566 81.5724 49.3434C81.8423 60.2302 74.3992 63.4173 71.422 64.5294C81.1662 64.9794 94.1588 58.5036 93.8889 44.6881C93.7175 35.9509 89.0181 30.4972 85.5827 27.6623C85.3119 27.4355 85.035 27.216 84.7521 27.0041L84.5808 26.8781C84.2001 26.5935 83.8094 26.3231 83.4088 26.0669C82.9988 25.7994 82.5779 25.5485 82.1473 25.3148L82.1343 25.3083L82.0137 25.2466L82.0111 25.2505C79.1699 23.7619 76.004 22.9854 72.7899 22.989C61.9491 22.989 53.1628 31.608 53.1628 42.2389L53.1666 42.2428C53.1632 42.3105 53.1619 42.3782 53.1628 42.4459C53.1615 46.542 56.5436 49.8602 60.7175 49.8602Z" fill="url(#paint0_linear_1_2)"/>
    <path d="M88.4808 15C82.1496 14.9904 75.9315 16.6614 70.4733 19.8392C71.7322 19.6682 73.0144 19.5718 74.3227 19.5718C89.5164 19.5718 101.83 31.653 101.83 46.5574C101.838 52.0984 100.103 57.5041 96.8648 62.0224C96.8284 62.0738 96.796 62.1214 96.7558 62.1741C95.4359 64.0743 93.9823 65.6273 92.4106 66.886C83.998 73.6253 72.2916 71.873 59.8388 69.4907C59.7151 69.4693 59.5922 69.4453 59.4702 69.4187C51.5041 67.8888 43.246 66.1364 35.3525 66.2046C12.6157 66.4051 7 83.3332 7 83.3332C7 83.3332 26.6233 70.1888 51.7974 79.7488C72.5005 87.6118 87.6631 86.3879 96.1523 83.4888C96.2937 83.4412 96.4326 83.4296 96.5585 83.3975L97.236 83.2381C97.5045 83.1725 97.7715 83.101 98.0367 83.0234C98.0445 83.0234 98.0536 83.0195 98.0536 83.0195L98.0575 83.0156C112.911 78.9234 123.805 65.5373 123.805 49.6532C123.805 30.5177 107.991 15 88.4808 15Z" fill="url(#paint1_linear_1_2)"/>
    <defs>
        <linearGradient id="paint0_linear_1_2" x1="53.1625" y1="22.989" x2="93.893" y2="22.989" gradientUnits="userSpaceOnUse">
            <stop stop-color="#2D388A"/>
            <stop offset="1" stop-color="#00AEEF"/>
        </linearGradient>
        <linearGradient id="paint1_linear_1_2" x1="7" y1="15" x2="123.805" y2="15" gradientUnits="userSpaceOnUse">
            <stop stop-color="#2D388A"/>
            <stop offset="1" stop-color="#00AEEF"/>
        </linearGradient>
    </defs>
</svg>